NotoSansOsage-Regular.ufo
<glyph name="acutecomb" format="2">
  <unicode hex="0301"/>
  <outline>
    <contour>
      <point x="-345" y="606" type="line"/>
      <point x="-287" y="606" type="line"/>
      <point x="-240" y="642"/>
      <point x="-169" y="719"/>
      <point x="-144" y="756" type="curve"/>
      <point x="-144" y="766" type="line"/>
      <point x="-250" y="766" type="line"/>
      <point x="-273" y="721"/>
      <point x="-316" y="655"/>
      <point x="-345" y="618" type="curve"/>
    </contour>
  </outline>
</glyph>
<glyph name="uni0304" format="2">
  <unicode hex="0304"/>
  <outline>
    <contour>
      <point x="-148" y="606" type="line"/>
      <point x="149" y="606" type="line"/>
      <point x="149" y="677" type="line"/>
      <point x="-148" y="677" type="line"/>
    </contour>
  </outline>
</glyph>
<glyph name="uni030B" format="2">
  <unicode hex="030B"/>
  <outline>
    <contour>
      <point x="20" y="606" type="line"/>
      <point x="70" y="606" type="line"/>
      <point x="115" y="642"/>
      <point x="182" y="721"/>
      <point x="203" y="756" type="curve"/>
      <point x="203" y="766" type="line"/>
      <point x="107" y="766" type="line"/>
      <point x="86" y="721"/>
      <point x="48" y="656"/>
      <point x="20" y="618" type="curve"/>
    </contour>
    <contour>
      <point x="-126" y="606" type="line"/>
      <point x="-76" y="606" type="line"/>
      <point x="-31" y="642"/>
      <point x="36" y="721"/>
      <point x="57" y="756" type="curve"/>
      <point x="57" y="766" type="line"/>
      <point x="-39" y="766" type="line"/>
      <point x="-61" y="721"/>
      <point x="-98" y="656"/>
      <point x="-126" y="618" type="curve"/>
    </contour>
  </outline>
</glyph>
<glyph name="uni0358" format="2">
  <unicode hex="0358"/>
  <outline>
    <contour>
      <point x="183" y="625" type="curve" smooth="yes"/>
      <point x="210" y="625"/>
      <point x="234" y="643"/>
      <point x="234" y="681" type="curve" smooth="yes"/>
      <point x="234" y="720"/>
      <point x="210" y="737"/>
      <point x="183" y="737" type="curve" smooth="yes"/>
      <point x="154" y="737"/>
      <point x="131" y="720"/>
      <point x="131" y="681" type="curve" smooth="yes"/>
      <point x="131" y="643"/>
      <point x="154" y="625"/>
    </contour>
  </outline>
</glyph>
<glyph name="u104B4" format="2">
  <advance width="634"/>
  <unicode hex="104B4"/>
  <outline>
    <contour>
      <point x="514" y="-141" type="line"/>
      <point x="619" y="-141" type="line"/>
      <point x="452" y="171" type="line"/>
      <point x="526" y="207"/>
      <point x="572" y="284"/>
      <point x="572" y="387" type="curve" smooth="yes"/>
      <point x="572" y="531"/>
      <point x="484" y="634"/>
      <point x="351" y="634" type="curve" smooth="yes"/>
      <point x="267" y="634"/>
      <point x="215" y="604"/>
      <point x="185" y="559" type="curve"/>
      <point x="180" y="559" type="line"/>
      <point x="182" y="581"/>
      <point x="185" y="619"/>
      <point x="185" y="664" type="curve" smooth="yes"/>
      <point x="185" y="714" type="line"/>
      <point x="97" y="714" type="line"/>
      <point x="97" y="0" type="line"/>
      <point x="187" y="0" type="line"/>
      <point x="187" y="219" type="line"/>
      <point x="217" y="177"/>
      <point x="269" y="149"/>
      <point x="351" y="149" type="curve" smooth="yes"/>
      <point x="368" y="149" type="line"/>
    </contour>
    <contour>
      <point x="338" y="227" type="curve" smooth="yes"/>
      <point x="220" y="227"/>
      <point x="187" y="314"/>
      <point x="187" y="386" type="curve" smooth="yes"/>
      <point x="187" y="390" type="line" smooth="yes"/>
      <point x="187" y="467"/>
      <point x="222" y="556"/>
      <point x="336" y="556" type="curve" smooth="yes"/>
      <point x="434" y="556"/>
      <point x="477" y="483"/>
      <point x="477" y="388" type="curve" smooth="yes"/>
      <point x="477" y="295"/>
      <point x="434" y="227"/>
    </contour>
  </outline>
</glyph>
<glyph name="u104B5" format="2">
  <advance width="685"/>
  <unicode hex="104B5"/>
  <outline>
    <contour>
      <point x="564" y="-229" type="curve"/>
      <point x="635" y="-173" type="line"/>
      <point x="603" y="-144"/>
      <point x="595" y="-102"/>
      <point x="595" y="-53" type="curve" smooth="yes"/>
      <point x="595" y="20"/>
      <point x="624" y="106"/>
      <point x="624" y="204" type="curve" smooth="yes"/>
      <point x="624" y="347"/>
      <point x="553" y="412"/>
      <point x="436" y="412" type="curve" smooth="yes"/>
      <point x="327" y="412"/>
      <point x="248" y="347"/>
      <point x="248" y="204" type="curve" smooth="yes"/>
      <point x="248" y="175"/>
      <point x="252" y="139"/>
      <point x="258" y="105" type="curve"/>
      <point x="184" y="147"/>
      <point x="145" y="234"/>
      <point x="145" y="357" type="curve" smooth="yes"/>
      <point x="145" y="536"/>
      <point x="239" y="645"/>
      <point x="392" y="645" type="curve" smooth="yes"/>
      <point x="449" y="645"/>
      <point x="511" y="625"/>
      <point x="555" y="607" type="curve"/>
      <point x="589" y="684" type="line"/>
      <point x="535" y="707"/>
      <point x="459" y="724"/>
      <point x="393" y="724" type="curve" smooth="yes"/>
      <point x="172" y="724"/>
      <point x="50" y="574"/>
      <point x="50" y="358" type="curve" smooth="yes"/>
      <point x="50" y="133"/>
      <point x="159" y="0"/>
      <point x="368" y="0" type="curve" smooth="yes"/>
      <point x="379" y="0" type="line"/>
      <point x="363" y="47"/>
      <point x="343" y="137"/>
      <point x="343" y="199" type="curve" smooth="yes"/>
      <point x="343" y="289"/>
      <point x="369" y="333"/>
      <point x="436" y="333" type="curve" smooth="yes"/>
      <point x="503" y="333"/>
      <point x="529" y="269"/>
      <point x="529" y="199" type="curve" smooth="yes"/>
      <point x="529" y="94"/>
      <point x="500" y="28"/>
      <point x="500" y="-65" type="curve" smooth="yes"/>
      <point x="500" y="-139"/>
      <point x="518" y="-196"/>
    </contour>
  </outline>
</glyph>
<glyph name="u104B7" format="2">
  <advance width="692"/>
  <unicode hex="104B7"/>
  <outline>
    <contour>
      <point x="305" y="-20" type="curve" smooth="yes"/>
      <point x="393" y="-20"/>
      <point x="476" y="35"/>
      <point x="540" y="204" type="curve"/>
      <point x="547" y="163"/>
      <point x="552" y="113"/>
      <point x="552" y="55" type="curve" smooth="yes"/>
      <point x="552" y="-1" type="line"/>
      <point x="642" y="6" type="line"/>
      <point x="642" y="54" type="line" smooth="yes"/>
      <point x="642" y="175"/>
      <point x="615" y="264"/>
      <point x="601" y="311" type="curve" smooth="yes"/>
      <point x="587" y="359" type="line"/>
      <point x="601" y="408" type="line" smooth="yes"/>
      <point x="614" y="455"/>
      <point x="642" y="544"/>
      <point x="642" y="665" type="curve" smooth="yes"/>
      <point x="642" y="713" type="line"/>
      <point x="552" y="720" type="line"/>
      <point x="552" y="664" type="line" smooth="yes"/>
      <point x="552" y="606"/>
      <point x="547" y="556"/>
      <point x="540" y="514" type="curve"/>
      <point x="476" y="683"/>
      <point x="393" y="739"/>
      <point x="305" y="739" type="curve" smooth="yes"/>
      <point x="167" y="739"/>
      <point x="50" y="581"/>
      <point x="50" y="370" type="curve" smooth="yes"/>
      <point x="50" y="349" type="line" smooth="yes"/>
      <point x="50" y="138"/>
      <point x="167" y="-20"/>
    </contour>
    <contour>
      <point x="303" y="59" type="curve" smooth="yes"/>
      <point x="227" y="59"/>
      <point x="145" y="178"/>
      <point x="145" y="349" type="curve" smooth="yes"/>
      <point x="145" y="370" type="line" smooth="yes"/>
      <point x="145" y="541"/>
      <point x="227" y="660"/>
      <point x="303" y="660" type="curve" smooth="yes"/>
      <point x="372" y="660"/>
      <point x="429" y="592"/>
      <point x="487" y="399" type="curve" smooth="yes"/>
      <point x="499" y="359" type="line"/>
      <point x="487" y="320" type="line" smooth="yes"/>
      <point x="428" y="128"/>
      <point x="372" y="59"/>
    </contour>
  </outline>
</glyph>
<glyph name="u104B9" format="2">
  <advance width="674"/>
  <unicode hex="104B9"/>
  <outline>
    <contour>
      <point x="176" y="-20" type="curve" smooth="yes"/>
      <point x="304" y="-20"/>
      <point x="355" y="75"/>
      <point x="396" y="189" type="curve" smooth="yes"/>
      <point x="513" y="516" type="line" smooth="yes"/>
      <point x="540" y="592"/>
      <point x="572" y="646"/>
      <point x="633" y="646" type="curve" smooth="yes"/>
      <point x="641" y="646" type="line"/>
      <point x="654" y="724" type="line"/>
      <point x="649" y="724"/>
      <point x="643" y="725"/>
      <point x="637" y="725" type="curve" smooth="yes"/>
      <point x="509" y="725"/>
      <point x="462" y="630"/>
      <point x="421" y="516" type="curve" smooth="yes"/>
      <point x="304" y="189" type="line" smooth="yes"/>
      <point x="277" y="113"/>
      <point x="241" y="59"/>
      <point x="180" y="59" type="curve" smooth="yes"/>
      <point x="130" y="59"/>
      <point x="122" y="89"/>
      <point x="122" y="117" type="curve" smooth="yes"/>
      <point x="122" y="158"/>
      <point x="144" y="206"/>
      <point x="178" y="251" type="curve"/>
      <point x="95" y="277" type="line"/>
      <point x="50" y="223"/>
      <point x="30" y="159"/>
      <point x="30" y="117" type="curve" smooth="yes"/>
      <point x="30" y="48"/>
      <point x="61" y="-20"/>
    </contour>
  </outline>
</glyph>
<glyph name="u104BA" format="2">
  <advance width="736"/>
  <unicode hex="104BA"/>
  <outline>
    <contour>
      <point x="176" y="-20" type="curve" smooth="yes"/>
      <point x="304" y="-20"/>
      <point x="355" y="75"/>
      <point x="396" y="189" type="curve" smooth="yes"/>
      <point x="513" y="516" type="line" smooth="yes"/>
      <point x="537" y="584"/>
      <point x="566" y="635"/>
      <point x="616" y="644" type="curve"/>
      <point x="616" y="571" type="line"/>
      <point x="696" y="571" type="line"/>
      <point x="696" y="795" type="line"/>
      <point x="616" y="795" type="line"/>
      <point x="616" y="724" type="line"/>
      <point x="503" y="714"/>
      <point x="459" y="623"/>
      <point x="421" y="516" type="curve" smooth="yes"/>
      <point x="304" y="189" type="line" smooth="yes"/>
      <point x="277" y="113"/>
      <point x="241" y="59"/>
      <point x="180" y="59" type="curve" smooth="yes"/>
      <point x="130" y="59"/>
      <point x="122" y="89"/>
      <point x="122" y="117" type="curve" smooth="yes"/>
      <point x="122" y="158"/>
      <point x="144" y="206"/>
      <point x="178" y="251" type="curve"/>
      <point x="95" y="277" type="line"/>
      <point x="50" y="223"/>
      <point x="30" y="159"/>
      <point x="30" y="117" type="curve" smooth="yes"/>
      <point x="30" y="48"/>
      <point x="61" y="-20"/>
    </contour>
  </outline>
</glyph>
<glyph name="u104BB" format="2">
  <advance width="692"/>
  <unicode hex="104BB"/>
  <outline>
    <contour>
      <point x="162" y="0" type="line"/>
      <point x="252" y="0" type="line"/>
      <point x="172" y="336" type="line" smooth="yes"/>
      <point x="162" y="377"/>
      <point x="152" y="418"/>
      <point x="152" y="463" type="curve" smooth="yes"/>
      <point x="152" y="579"/>
      <point x="204" y="646"/>
      <point x="346" y="646" type="curve" smooth="yes"/>
      <point x="488" y="646"/>
      <point x="540" y="579"/>
      <point x="540" y="463" type="curve" smooth="yes"/>
      <point x="540" y="418"/>
      <point x="530" y="377"/>
      <point x="520" y="336" type="curve" smooth="yes"/>
      <point x="440" y="0" type="line"/>
      <point x="530" y="0" type="line"/>
      <point x="610" y="338" type="line" smooth="yes"/>
      <point x="619" y="377"/>
      <point x="630" y="426"/>
      <point x="630" y="465" type="curve" smooth="yes"/>
      <point x="630" y="619"/>
      <point x="546" y="724"/>
      <point x="346" y="724" type="curve" smooth="yes"/>
      <point x="146" y="724"/>
      <point x="62" y="619"/>
      <point x="62" y="465" type="curve" smooth="yes"/>
      <point x="62" y="426"/>
      <point x="73" y="377"/>
      <point x="82" y="338" type="curve" smooth="yes"/>
    </contour>
  </outline>
</glyph>
<glyph name="u104BC" format="2">
  <advance width="659"/>
  <unicode hex="104BC"/>
  <outline>
    <contour>
      <point x="406" y="-240" type="curve" smooth="yes"/>
      <point x="521" y="-240"/>
      <point x="600" y="-178"/>
      <point x="600" y="-44" type="curve" smooth="yes"/>
      <point x="600" y="196" type="line" smooth="yes"/>
      <point x="600" y="358"/>
      <point x="518" y="434"/>
      <point x="374" y="434" type="curve" smooth="yes"/>
      <point x="368" y="434"/>
      <point x="362" y="434"/>
      <point x="356" y="433" type="curve"/>
      <point x="648" y="714" type="line"/>
      <point x="533" y="714" type="line"/>
      <point x="187" y="372" type="line"/>
      <point x="187" y="714" type="line"/>
      <point x="97" y="714" type="line"/>
      <point x="97" y="0" type="line"/>
      <point x="187" y="0" type="line"/>
      <point x="187" y="144" type="line" smooth="yes"/>
      <point x="187" y="270"/>
      <point x="240" y="356"/>
      <point x="359" y="356" type="curve" smooth="yes"/>
      <point x="460" y="356"/>
      <point x="510" y="306"/>
      <point x="510" y="185" type="curve" smooth="yes"/>
      <point x="510" y="-50" type="line" smooth="yes"/>
      <point x="510" y="-137"/>
      <point x="457" y="-161"/>
      <point x="406" y="-161" type="curve" smooth="yes"/>
      <point x="377" y="-161"/>
      <point x="351" y="-157"/>
      <point x="330" y="-151" type="curve"/>
      <point x="330" y="-227" type="line"/>
      <point x="348" y="-235"/>
      <point x="373" y="-240"/>
    </contour>
  </outline>
</glyph>
<glyph name="u104BE" format="2">
  <advance width="659"/>
  <unicode hex="104BE"/>
  <outline>
    <contour>
      <point x="611" y="-256" type="curve"/>
      <point x="677" y="-223" type="line"/>
      <point x="654" y="-159"/>
      <point x="628" y="-122"/>
      <point x="600" y="-89" type="curve"/>
      <point x="600" y="196" type="line" smooth="yes"/>
      <point x="600" y="358"/>
      <point x="518" y="434"/>
      <point x="374" y="434" type="curve" smooth="yes"/>
      <point x="368" y="434"/>
      <point x="362" y="434"/>
      <point x="356" y="433" type="curve"/>
      <point x="648" y="714" type="line"/>
      <point x="533" y="714" type="line"/>
      <point x="187" y="372" type="line"/>
      <point x="187" y="714" type="line"/>
      <point x="97" y="714" type="line"/>
      <point x="97" y="0" type="line"/>
      <point x="187" y="0" type="line"/>
      <point x="187" y="144" type="line" smooth="yes"/>
      <point x="187" y="270"/>
      <point x="240" y="356"/>
      <point x="359" y="356" type="curve" smooth="yes"/>
      <point x="460" y="356"/>
      <point x="510" y="306"/>
      <point x="510" y="185" type="curve" smooth="yes"/>
      <point x="510" y="-27" type="line"/>
      <point x="489" y="-19"/>
      <point x="457" y="-15"/>
      <point x="432" y="-15" type="curve" smooth="yes"/>
      <point x="335" y="-15"/>
      <point x="275" y="-63"/>
      <point x="275" y="-131" type="curve" smooth="yes"/>
      <point x="275" y="-201"/>
      <point x="343" y="-247"/>
      <point x="435" y="-247" type="curve" smooth="yes"/>
      <point x="498" y="-247"/>
      <point x="551" y="-221"/>
      <point x="574" y="-182" type="curve"/>
      <point x="584" y="-201"/>
      <point x="599" y="-223"/>
    </contour>
    <contour>
      <point x="436" y="-175" type="curve" smooth="yes"/>
      <point x="392" y="-175"/>
      <point x="362" y="-156"/>
      <point x="362" y="-132" type="curve" smooth="yes"/>
      <point x="362" y="-99"/>
      <point x="393" y="-87"/>
      <point x="439" y="-87" type="curve" smooth="yes"/>
      <point x="460" y="-87"/>
      <point x="490" y="-91"/>
      <point x="510" y="-107" type="curve"/>
      <point x="508" y="-155"/>
      <point x="482" y="-175"/>
    </contour>
  </outline>
</glyph>
<glyph name="u104C0" format="2">
  <advance width="805"/>
  <unicode hex="104C0"/>
  <outline>
    <contour>
      <point x="90" y="0" type="line"/>
      <point x="180" y="0" type="line"/>
      <point x="180" y="416" type="line" smooth="yes"/>
      <point x="180" y="584"/>
      <point x="262" y="645"/>
      <point x="356" y="649" type="curve"/>
      <point x="300" y="602"/>
      <point x="266" y="535"/>
      <point x="266" y="447" type="curve" smooth="yes"/>
      <point x="266" y="285"/>
      <point x="357" y="225"/>
      <point x="451" y="225" type="curve" smooth="yes"/>
      <point x="546" y="225"/>
      <point x="637" y="285"/>
      <point x="637" y="447" type="curve" smooth="yes"/>
      <point x="637" y="534"/>
      <point x="610" y="601"/>
      <point x="564" y="648" type="curve"/>
      <point x="575" y="649"/>
      <point x="586" y="649"/>
      <point x="598" y="649" type="curve" smooth="yes"/>
      <point x="662" y="649"/>
      <point x="736" y="630"/>
      <point x="780" y="610" type="curve"/>
      <point x="805" y="681" type="line"/>
      <point x="751" y="708"/>
      <point x="670" y="725"/>
      <point x="597" y="725" type="curve" smooth="yes"/>
      <point x="551" y="725"/>
      <point x="508" y="719"/>
      <point x="468" y="707" type="curve"/>
      <point x="434" y="719"/>
      <point x="397" y="725"/>
      <point x="357" y="725" type="curve" smooth="yes"/>
      <point x="233" y="725"/>
      <point x="90" y="632"/>
      <point x="90" y="449" type="curve" smooth="yes"/>
    </contour>
    <contour>
      <point x="453" y="298" type="curve" smooth="yes"/>
      <point x="401" y="298"/>
      <point x="357" y="340"/>
      <point x="357" y="443" type="curve" smooth="yes"/>
      <point x="357" y="537"/>
      <point x="397" y="595"/>
      <point x="463" y="624" type="curve"/>
      <point x="512" y="595"/>
      <point x="546" y="537"/>
      <point x="546" y="443" type="curve" smooth="yes"/>
      <point x="546" y="340"/>
      <point x="502" y="298"/>
    </contour>
  </outline>
</glyph>
<glyph name="u104C1" format="2">
  <advance width="782"/>
  <unicode hex="104C1"/>
  <outline>
    <contour>
      <point x="461" y="-10" type="curve" smooth="yes"/>
      <point x="616" y="-10"/>
      <point x="717" y="65"/>
      <point x="762" y="190" type="curve"/>
      <point x="667" y="190" type="line"/>
      <point x="633" y="110"/>
      <point x="565" y="68"/>
      <point x="461" y="68" type="curve" smooth="yes"/>
      <point x="302" y="68"/>
      <point x="230" y="184"/>
      <point x="230" y="334" type="curve" smooth="yes"/>
      <point x="230" y="400"/>
      <point x="235" y="450"/>
      <point x="248" y="486" type="curve" smooth="yes"/>
      <point x="330" y="714" type="line"/>
      <point x="236" y="714" type="line"/>
      <point x="-20" y="0" type="line"/>
      <point x="75" y="0" type="line"/>
      <point x="154" y="222" type="line"/>
      <point x="187" y="89"/>
      <point x="285" y="-10"/>
    </contour>
  </outline>
</glyph>
<glyph name="u104C4" format="2">
  <advance width="632"/>
  <unicode hex="104C4"/>
  <outline>
    <contour>
      <point x="97" y="0" type="line"/>
      <point x="187" y="0" type="line"/>
      <point x="187" y="189" type="line"/>
      <point x="217" y="147"/>
      <point x="269" y="119"/>
      <point x="351" y="119" type="curve" smooth="yes"/>
      <point x="483" y="119"/>
      <point x="572" y="213"/>
      <point x="572" y="357" type="curve" smooth="yes"/>
      <point x="572" y="501"/>
      <point x="484" y="604"/>
      <point x="351" y="604" type="curve" smooth="yes"/>
      <point x="267" y="604"/>
      <point x="215" y="574"/>
      <point x="185" y="529" type="curve"/>
      <point x="180" y="529" type="line"/>
      <point x="182" y="551"/>
      <point x="185" y="589"/>
      <point x="185" y="634" type="curve" smooth="yes"/>
      <point x="185" y="714" type="line"/>
      <point x="97" y="714" type="line"/>
    </contour>
    <contour>
      <point x="338" y="197" type="curve" smooth="yes"/>
      <point x="220" y="197"/>
      <point x="187" y="284"/>
      <point x="187" y="356" type="curve" smooth="yes"/>
      <point x="187" y="360" type="line" smooth="yes"/>
      <point x="187" y="437"/>
      <point x="222" y="526"/>
      <point x="336" y="526" type="curve" smooth="yes"/>
      <point x="434" y="526"/>
      <point x="477" y="453"/>
      <point x="477" y="358" type="curve" smooth="yes"/>
      <point x="477" y="265"/>
      <point x="434" y="197"/>
    </contour>
  </outline>
</glyph>
<glyph name="u104C6" format="2">
  <advance width="565"/>
  <unicode hex="104C6"/>
  <outline>
    <contour>
      <point x="460" y="-18" type="curve"/>
      <point x="512" y="58" type="line"/>
      <point x="244" y="209"/>
      <point x="155" y="356"/>
      <point x="155" y="457" type="curve" smooth="yes"/>
      <point x="155" y="565"/>
      <point x="199" y="645"/>
      <point x="322" y="645" type="curve" smooth="yes"/>
      <point x="386" y="645"/>
      <point x="440" y="626"/>
      <point x="484" y="606" type="curve"/>
      <point x="520" y="682" type="line"/>
      <point x="466" y="709"/>
      <point x="396" y="724"/>
      <point x="323" y="724" type="curve" smooth="yes"/>
      <point x="146" y="724"/>
      <point x="60" y="614"/>
      <point x="60" y="458" type="curve" smooth="yes"/>
      <point x="60" y="365"/>
      <point x="107" y="181"/>
    </contour>
  </outline>
</glyph>
<glyph name="u104C7" format="2">
  <advance width="768"/>
  <unicode hex="104C7"/>
  <outline>
    <contour>
      <point x="657" y="-229" type="curve"/>
      <point x="728" y="-173" type="line"/>
      <point x="696" y="-144"/>
      <point x="688" y="-102"/>
      <point x="688" y="-53" type="curve" smooth="yes"/>
      <point x="688" y="18"/>
      <point x="717" y="102"/>
      <point x="717" y="197" type="curve" smooth="yes"/>
      <point x="717" y="358"/>
      <point x="592" y="462"/>
      <point x="403" y="462" type="curve" smooth="yes"/>
      <point x="338" y="462"/>
      <point x="281" y="452"/>
      <point x="232" y="435" type="curve"/>
      <point x="182" y="462"/>
      <point x="164" y="491"/>
      <point x="164" y="541" type="curve" smooth="yes"/>
      <point x="164" y="603"/>
      <point x="210" y="645"/>
      <point x="299" y="645" type="curve" smooth="yes"/>
      <point x="361" y="645"/>
      <point x="420" y="628"/>
      <point x="470" y="607" type="curve"/>
      <point x="498" y="684" type="line"/>
      <point x="444" y="708"/>
      <point x="379" y="724"/>
      <point x="301" y="724" type="curve" smooth="yes"/>
      <point x="166" y="724"/>
      <point x="73" y="655"/>
      <point x="73" y="542" type="curve" smooth="yes"/>
      <point x="73" y="473"/>
      <point x="96" y="425"/>
      <point x="143" y="388" type="curve"/>
      <point x="84" y="342"/>
      <point x="50" y="279"/>
      <point x="50" y="202" type="curve" smooth="yes"/>
      <point x="50" y="32"/>
      <point x="180" y="-10"/>
      <point x="272" y="-10" type="curve" smooth="yes"/>
      <point x="416" y="-10"/>
      <point x="515" y="64"/>
      <point x="515" y="191" type="curve" smooth="yes"/>
      <point x="515" y="292"/>
      <point x="459" y="340"/>
      <point x="356" y="383" type="curve"/>
      <point x="367" y="384"/>
      <point x="377" y="384"/>
      <point x="389" y="384" type="curve" smooth="yes"/>
      <point x="533" y="384"/>
      <point x="622" y="316"/>
      <point x="622" y="194" type="curve" smooth="yes"/>
      <point x="622" y="92"/>
      <point x="593" y="26"/>
      <point x="593" y="-65" type="curve" smooth="yes"/>
      <point x="593" y="-139"/>
      <point x="611" y="-196"/>
    </contour>
    <contour>
      <point x="275" y="68" type="curve" smooth="yes"/>
      <point x="188" y="68"/>
      <point x="141" y="122"/>
      <point x="141" y="202" type="curve" smooth="yes"/>
      <point x="141" y="264"/>
      <point x="171" y="312"/>
      <point x="221" y="343" type="curve"/>
      <point x="238" y="335"/>
      <point x="244" y="335"/>
      <point x="257" y="330" type="curve" smooth="yes"/>
      <point x="361" y="290"/>
      <point x="425" y="266"/>
      <point x="425" y="183" type="curve" smooth="yes"/>
      <point x="425" y="112"/>
      <point x="370" y="68"/>
    </contour>
  </outline>
</glyph>
<glyph name="u104C8" format="2">
  <advance width="790"/>
  <unicode hex="104C8"/>
  <outline>
    <contour>
      <point x="151" y="0" type="line"/>
      <point x="356" y="0" type="line" smooth="yes"/>
      <point x="591" y="0"/>
      <point x="729" y="123"/>
      <point x="729" y="364" type="curve" smooth="yes"/>
      <point x="729" y="593"/>
      <point x="592" y="714"/>
      <point x="393" y="714" type="curve"/>
      <point x="30" y="714" type="line"/>
      <point x="30" y="635" type="line"/>
      <point x="257" y="635" type="line"/>
    </contour>
    <contour>
      <point x="257" y="77" type="line"/>
      <point x="350" y="635" type="line"/>
      <point x="382" y="635" type="line" smooth="yes"/>
      <point x="537" y="635"/>
      <point x="634" y="551"/>
      <point x="634" y="361" type="curve" smooth="yes"/>
      <point x="634" y="173"/>
      <point x="537" y="77"/>
      <point x="344" y="77" type="curve" smooth="yes"/>
    </contour>
  </outline>
</glyph>
<glyph name="u104CA" format="2">
  <advance width="716"/>
  <unicode hex="104CA"/>
  <outline>
    <contour>
      <point x="256" y="-182" type="curve" smooth="yes"/>
      <point x="360" y="-182"/>
      <point x="459" y="-146"/>
      <point x="515" y="-113" type="curve"/>
      <point x="487" y="-36" type="line"/>
      <point x="435" y="-65"/>
      <point x="349" y="-103"/>
      <point x="262" y="-103" type="curve" smooth="yes"/>
      <point x="165" y="-103"/>
      <point x="113" y="-50"/>
      <point x="113" y="12" type="curve" smooth="yes"/>
      <point x="113" y="106"/>
      <point x="186" y="148"/>
      <point x="333" y="175" type="curve" smooth="yes"/>
      <point x="563" y="217"/>
      <point x="656" y="300"/>
      <point x="656" y="464" type="curve" smooth="yes"/>
      <point x="656" y="591"/>
      <point x="582" y="714"/>
      <point x="390" y="714" type="curve" smooth="yes"/>
      <point x="97" y="714" type="line"/>
      <point x="97" y="635" type="line"/>
      <point x="304" y="635" type="line"/>
      <point x="215" y="232" type="line"/>
      <point x="95" y="196"/>
      <point x="20" y="139"/>
      <point x="20" y="11" type="curve" smooth="yes"/>
      <point x="20" y="-102"/>
      <point x="121" y="-182"/>
    </contour>
    <contour>
      <point x="313" y="257" type="line"/>
      <point x="395" y="631" type="line"/>
      <point x="547" y="612"/>
      <point x="563" y="518"/>
      <point x="563" y="459" type="curve" smooth="yes"/>
      <point x="563" y="320"/>
      <point x="463" y="288"/>
      <point x="319" y="258" type="curve" smooth="yes"/>
    </contour>
  </outline>
</glyph>
<glyph name="u104CD" format="2">
  <advance width="737"/>
  <unicode hex="104CD"/>
  <outline>
    <contour>
      <point x="606" y="-229" type="curve"/>
      <point x="677" y="-173" type="line"/>
      <point x="645" y="-144"/>
      <point x="637" y="-102"/>
      <point x="637" y="-53" type="curve" smooth="yes"/>
      <point x="637" y="18"/>
      <point x="666" y="102"/>
      <point x="666" y="197" type="curve" smooth="yes"/>
      <point x="666" y="345"/>
      <point x="601" y="452"/>
      <point x="436" y="452" type="curve" smooth="yes"/>
      <point x="368" y="452"/>
      <point x="319" y="425"/>
      <point x="285" y="389" type="curve"/>
      <point x="285" y="634" type="line"/>
      <point x="530" y="634" type="line"/>
      <point x="530" y="714" type="line"/>
      <point x="30" y="714" type="line"/>
      <point x="30" y="634" type="line"/>
      <point x="195" y="634" type="line"/>
      <point x="195" y="0" type="line"/>
      <point x="285" y="0" type="line"/>
      <point x="285" y="258" type="line"/>
      <point x="307" y="314"/>
      <point x="354" y="374"/>
      <point x="435" y="374" type="curve" smooth="yes"/>
      <point x="542" y="374"/>
      <point x="571" y="300"/>
      <point x="571" y="194" type="curve" smooth="yes"/>
      <point x="571" y="92"/>
      <point x="542" y="26"/>
      <point x="542" y="-65" type="curve" smooth="yes"/>
      <point x="542" y="-139"/>
      <point x="560" y="-196"/>
    </contour>
  </outline>
</glyph>
<glyph name="u104CF" format="2">
  <advance width="508"/>
  <unicode hex="104CF"/>
  <outline>
    <contour>
      <point x="243" y="0" type="line"/>
      <point x="336" y="0" type="line"/>
      <point x="430" y="432" type="line"/>
      <point x="187" y="432" type="line"/>
      <point x="250" y="714" type="line"/>
      <point x="157" y="714" type="line"/>
      <point x="78" y="353" type="line"/>
      <point x="321" y="353" type="line"/>
    </contour>
  </outline>
</glyph>
<glyph name="u104D0" format="2">
  <advance width="804"/>
  <unicode hex="104D0"/>
  <outline>
    <contour>
      <point x="53" y="0" type="line"/>
      <point x="145" y="0" type="line"/>
      <point x="145" y="236" type="line" smooth="yes"/>
      <point x="145" y="357"/>
      <point x="207" y="420"/>
      <point x="359" y="420" type="curve"/>
      <point x="359" y="0" type="line"/>
      <point x="447" y="0" type="line"/>
      <point x="447" y="420" type="line"/>
      <point x="596" y="420"/>
      <point x="661" y="358"/>
      <point x="661" y="234" type="curve" smooth="yes"/>
      <point x="661" y="0" type="line"/>
      <point x="751" y="0" type="line"/>
      <point x="751" y="236" type="line" smooth="yes"/>
      <point x="751" y="368"/>
      <point x="688" y="497"/>
      <point x="447" y="497" type="curve"/>
      <point x="447" y="714" type="line"/>
      <point x="359" y="714" type="line"/>
      <point x="359" y="497" type="line"/>
      <point x="119" y="497"/>
      <point x="53" y="371"/>
      <point x="53" y="235" type="curve" smooth="yes"/>
    </contour>
  </outline>
</glyph>
<glyph name="u104D2" format="2">
  <advance width="572"/>
  <unicode hex="104D2"/>
  <outline>
    <contour>
      <point x="-9" y="0" type="line"/>
      <point x="93" y="0" type="line"/>
      <point x="523" y="646" type="line"/>
      <point x="523" y="714" type="line"/>
      <point x="50" y="714" type="line"/>
      <point x="50" y="634" type="line"/>
      <point x="414" y="634" type="line"/>
    </contour>
  </outline>
</glyph>
<glyph name="u104D3" format="2">
  <advance width="681"/>
  <unicode hex="104D3"/>
  <outline>
    <contour>
      <point x="590" y="-229" type="curve"/>
      <point x="661" y="-173" type="line"/>
      <point x="629" y="-144"/>
      <point x="621" y="-100"/>
      <point x="621" y="-74" type="curve" smooth="yes"/>
      <point x="621" y="-32"/>
      <point x="627" y="-10"/>
      <point x="627" y="11" type="curve" smooth="yes"/>
      <point x="627" y="159"/>
      <point x="499" y="231"/>
      <point x="366" y="231" type="curve" smooth="yes"/>
      <point x="320" y="231"/>
      <point x="283" y="225"/>
      <point x="252" y="215" type="curve"/>
      <point x="538" y="646" type="line"/>
      <point x="538" y="714" type="line"/>
      <point x="65" y="714" type="line"/>
      <point x="65" y="634" type="line"/>
      <point x="429" y="634" type="line"/>
      <point x="30" y="32" type="line"/>
      <point x="30" y="0" type="line"/>
      <point x="116" y="0" type="line"/>
      <point x="155" y="68" type="line"/>
      <point x="196" y="120"/>
      <point x="261" y="152"/>
      <point x="353" y="152" type="curve" smooth="yes"/>
      <point x="467" y="152"/>
      <point x="532" y="94"/>
      <point x="532" y="10" type="curve" smooth="yes"/>
      <point x="532" y="-15"/>
      <point x="526" y="-40"/>
      <point x="526" y="-83" type="curve" smooth="yes"/>
      <point x="526" y="-139"/>
      <point x="544" y="-196"/>
    </contour>
  </outline>
</glyph>
<glyph name="u104D8" format="2">
  <advance width="508"/>
  <unicode hex="104D8"/>
  <outline>
    <contour>
      <point x="0" y="0" type="line"/>
      <point x="94" y="0" type="line"/>
      <point x="208" y="316" type="line" smooth="yes"/>
      <point x="223" y="359"/>
      <point x="246" y="425"/>
      <point x="253" y="458" type="curve"/>
      <point x="257" y="458" type="line"/>
      <point x="263" y="425"/>
      <point x="284" y="360"/>
      <point x="300" y="316" type="curve" smooth="yes"/>
      <point x="414" y="0" type="line"/>
      <point x="508" y="0" type="line"/>
      <point x="305" y="536" type="line"/>
      <point x="204" y="536" type="line"/>
    </contour>
  </outline>
</glyph>
<glyph name="u104DB" format="2">
  <advance width="491"/>
  <unicode hex="104DB"/>
  <outline>
    <contour>
      <point x="10" y="0" type="line"/>
      <point x="99" y="0" type="line"/>
      <point x="258" y="314" type="line"/>
      <point x="392" y="0" type="line"/>
      <point x="481" y="0" type="line"/>
      <point x="209" y="640" type="line"/>
      <point x="120" y="640" type="line"/>
      <point x="219" y="406" type="line"/>
    </contour>
  </outline>
</glyph>
<glyph name="u104DC" format="2">
  <advance width="500"/>
  <unicode hex="104DC"/>
  <outline>
    <contour>
      <point x="415" y="-120" type="line"/>
      <point x="517" y="-120" type="line"/>
      <point x="374" y="128" type="line"/>
      <point x="416" y="157"/>
      <point x="442" y="213"/>
      <point x="442" y="294" type="curve" smooth="yes"/>
      <point x="442" y="419"/>
      <point x="381" y="482"/>
      <point x="289" y="482" type="curve" smooth="yes"/>
      <point x="229" y="482"/>
      <point x="189" y="455"/>
      <point x="174" y="429" type="curve"/>
      <point x="171" y="429" type="line"/>
      <point x="172" y="452"/>
      <point x="173" y="471"/>
      <point x="173" y="494" type="curve" smooth="yes"/>
      <point x="173" y="536" type="line"/>
      <point x="85" y="536" type="line"/>
      <point x="85" y="0" type="line"/>
      <point x="173" y="0" type="line"/>
      <point x="173" y="98" type="line" smooth="yes"/>
      <point x="173" y="115"/>
      <point x="172" y="138"/>
      <point x="171" y="154" type="curve"/>
      <point x="175" y="154" type="line"/>
      <point x="197" y="126"/>
      <point x="230" y="105"/>
      <point x="292" y="105" type="curve"/>
    </contour>
    <contour>
      <point x="269" y="180" type="curve" smooth="yes"/>
      <point x="205" y="180"/>
      <point x="173" y="226"/>
      <point x="173" y="278" type="curve" smooth="yes"/>
      <point x="173" y="308" type="line"/>
      <point x="173" y="358"/>
      <point x="209" y="409"/>
      <point x="271" y="409" type="curve" smooth="yes"/>
      <point x="326" y="409"/>
      <point x="351" y="360"/>
      <point x="351" y="294" type="curve" smooth="yes"/>
      <point x="351" y="229"/>
      <point x="324" y="180"/>
    </contour>
  </outline>
</glyph>
<glyph name="u104DD" format="2">
  <advance width="570"/>
  <unicode hex="104DD"/>
  <outline>
    <contour>
      <point x="300" y="0" type="curve" smooth="yes"/>
      <point x="326" y="0" type="line"/>
      <point x="299" y="76" type="line"/>
      <point x="198" y="76"/>
      <point x="146" y="137"/>
      <point x="146" y="266" type="curve" smooth="yes"/>
      <point x="146" y="400"/>
      <point x="197" y="469"/>
      <point x="313" y="469" type="curve" smooth="yes"/>
      <point x="377" y="469"/>
      <point x="420" y="453"/>
      <point x="452" y="441" type="curve"/>
      <point x="483" y="510" type="line"/>
      <point x="451" y="526"/>
      <point x="388" y="546"/>
      <point x="313" y="546" type="curve" smooth="yes"/>
      <point x="169" y="546"/>
      <point x="55" y="463"/>
      <point x="55" y="265" type="curve" smooth="yes"/>
      <point x="55" y="75"/>
      <point x="157" y="0"/>
    </contour>
    <contour>
      <point x="451" y="-174" type="curve"/>
      <point x="525" y="-131" type="line"/>
      <point x="500" y="-108"/>
      <point x="494" y="-76"/>
      <point x="494" y="-38" type="curve" smooth="yes"/>
      <point x="494" y="30"/>
      <point x="517" y="92"/>
      <point x="517" y="157" type="curve" smooth="yes"/>
      <point x="517" y="261"/>
      <point x="448" y="311"/>
      <point x="364" y="311" type="curve" smooth="yes"/>
      <point x="278" y="311"/>
      <point x="211" y="262"/>
      <point x="211" y="154" type="curve" smooth="yes"/>
      <point x="211" y="122"/>
      <point x="218" y="78"/>
      <point x="226" y="44" type="curve"/>
      <point x="326" y="0" type="line"/>
      <point x="314" y="36"/>
      <point x="299" y="104"/>
      <point x="299" y="150" type="curve" smooth="yes"/>
      <point x="299" y="200"/>
      <point x="314" y="237"/>
      <point x="364" y="237" type="curve" smooth="yes"/>
      <point x="414" y="237"/>
      <point x="429" y="193"/>
      <point x="429" y="150" type="curve" smooth="yes"/>
      <point x="429" y="72"/>
      <point x="402" y="22"/>
      <point x="402" y="-48" type="curve" smooth="yes"/>
      <point x="402" y="-105"/>
      <point x="416" y="-149"/>
    </contour>
  </outline>
</glyph>
<glyph name="u104DF" format="2">
  <advance width="611"/>
  <unicode hex="104DF"/>
  <outline>
    <contour>
      <point x="262" y="-13" type="curve" smooth="yes"/>
      <point x="340" y="-13"/>
      <point x="394" y="12"/>
      <point x="440" y="116" type="curve"/>
      <point x="445" y="78"/>
      <point x="448" y="37"/>
      <point x="448" y="-9" type="curve"/>
      <point x="531" y="-3" type="line"/>
      <point x="531" y="91"/>
      <point x="522" y="155"/>
      <point x="505" y="212" type="curve" smooth="yes"/>
      <point x="489" y="266" type="line"/>
      <point x="505" y="321" type="line" smooth="yes"/>
      <point x="522" y="378"/>
      <point x="531" y="442"/>
      <point x="531" y="536" type="curve"/>
      <point x="448" y="542" type="line"/>
      <point x="448" y="496"/>
      <point x="445" y="454"/>
      <point x="440" y="416" type="curve"/>
      <point x="394" y="520"/>
      <point x="340" y="546"/>
      <point x="262" y="546" type="curve" smooth="yes"/>
      <point x="142" y="546"/>
      <point x="55" y="452"/>
      <point x="55" y="266" type="curve" smooth="yes"/>
      <point x="55" y="81"/>
      <point x="142" y="-13"/>
    </contour>
    <contour>
      <point x="260" y="61" type="curve" smooth="yes"/>
      <point x="192" y="61"/>
      <point x="146" y="130"/>
      <point x="146" y="268" type="curve" smooth="yes"/>
      <point x="146" y="401"/>
      <point x="191" y="472"/>
      <point x="260" y="472" type="curve" smooth="yes"/>
      <point x="310" y="472"/>
      <point x="352" y="435"/>
      <point x="390" y="307" type="curve" smooth="yes"/>
      <point x="402" y="266" type="line"/>
      <point x="390" y="226" type="line" smooth="yes"/>
      <point x="352" y="98"/>
      <point x="310" y="61"/>
    </contour>
  </outline>
</glyph>
<glyph name="u104E1" format="2">
  <advance width="528"/>
  <unicode hex="104E1"/>
  <outline>
    <contour>
      <point x="160" y="-9" type="curve" smooth="yes"/>
      <point x="259" y="-9"/>
      <point x="303" y="64"/>
      <point x="334" y="151" type="curve" smooth="yes"/>
      <point x="416" y="380" type="line" smooth="yes"/>
      <point x="434" y="431"/>
      <point x="457" y="468"/>
      <point x="495" y="468" type="curve" smooth="yes"/>
      <point x="506" y="468"/>
      <point x="505" y="467"/>
      <point x="509" y="467" type="curve"/>
      <point x="518" y="544" type="line"/>
      <point x="511" y="546"/>
      <point x="498" y="546"/>
      <point x="496" y="546" type="curve" smooth="yes"/>
      <point x="399" y="546"/>
      <point x="359" y="471"/>
      <point x="329" y="386" type="curve" smooth="yes"/>
      <point x="247" y="157" type="line" smooth="yes"/>
      <point x="229" y="106"/>
      <point x="201" y="68"/>
      <point x="163" y="68" type="curve" smooth="yes"/>
      <point x="135" y="68"/>
      <point x="130" y="86"/>
      <point x="130" y="101" type="curve" smooth="yes"/>
      <point x="130" y="129"/>
      <point x="141" y="163"/>
      <point x="164" y="194" type="curve"/>
      <point x="91" y="233" type="line"/>
      <point x="57" y="192"/>
      <point x="40" y="136"/>
      <point x="40" y="103" type="curve" smooth="yes"/>
      <point x="40" y="48"/>
      <point x="68" y="-9"/>
    </contour>
  </outline>
</glyph>
<glyph name="u104E2" format="2">
  <advance width="565"/>
  <unicode hex="104E2"/>
  <outline>
    <contour>
      <point x="160" y="-9" type="curve" smooth="yes"/>
      <point x="259" y="-9"/>
      <point x="303" y="64"/>
      <point x="334" y="151" type="curve" smooth="yes"/>
      <point x="416" y="380" type="line" smooth="yes"/>
      <point x="431" y="422"/>
      <point x="449" y="454"/>
      <point x="476" y="464" type="curve"/>
      <point x="476" y="401" type="line"/>
      <point x="545" y="401" type="line"/>
      <point x="545" y="605" type="line"/>
      <point x="476" y="605" type="line"/>
      <point x="476" y="545" type="line"/>
      <point x="393" y="535"/>
      <point x="357" y="465"/>
      <point x="329" y="386" type="curve" smooth="yes"/>
      <point x="247" y="157" type="line" smooth="yes"/>
      <point x="229" y="106"/>
      <point x="201" y="68"/>
      <point x="163" y="68" type="curve" smooth="yes"/>
      <point x="135" y="68"/>
      <point x="130" y="86"/>
      <point x="130" y="101" type="curve" smooth="yes"/>
      <point x="130" y="129"/>
      <point x="141" y="163"/>
      <point x="164" y="194" type="curve"/>
      <point x="91" y="233" type="line"/>
      <point x="57" y="192"/>
      <point x="40" y="136"/>
      <point x="40" y="103" type="curve" smooth="yes"/>
      <point x="40" y="48"/>
      <point x="68" y="-9"/>
    </contour>
  </outline>
</glyph>
<glyph name="u104E3" format="2">
  <advance width="567"/>
  <unicode hex="104E3"/>
  <outline>
    <contour>
      <point x="90" y="0" type="line"/>
      <point x="178" y="0" type="line"/>
      <point x="149" y="197" type="line" smooth="yes"/>
      <point x="145" y="223"/>
      <point x="139" y="286"/>
      <point x="139" y="317" type="curve" smooth="yes"/>
      <point x="139" y="400"/>
      <point x="170" y="474"/>
      <point x="283" y="474" type="curve" smooth="yes"/>
      <point x="401" y="474"/>
      <point x="428" y="400"/>
      <point x="428" y="317" type="curve" smooth="yes"/>
      <point x="428" y="286"/>
      <point x="422" y="223"/>
      <point x="418" y="197" type="curve" smooth="yes"/>
      <point x="389" y="0" type="line"/>
      <point x="477" y="0" type="line"/>
      <point x="506" y="200" type="line" smooth="yes"/>
      <point x="510" y="226"/>
      <point x="517" y="290"/>
      <point x="517" y="321" type="curve" smooth="yes"/>
      <point x="517" y="466"/>
      <point x="452" y="546"/>
      <point x="284" y="546" type="curve" smooth="yes"/>
      <point x="118" y="546"/>
      <point x="50" y="466"/>
      <point x="50" y="321" type="curve" smooth="yes"/>
      <point x="50" y="290"/>
      <point x="57" y="226"/>
      <point x="61" y="200" type="curve" smooth="yes"/>
    </contour>
  </outline>
</glyph>
<glyph name="u104E4" format="2">
  <advance width="595"/>
  <unicode hex="104E4"/>
  <outline>
    <contour>
      <point x="369" y="-240" type="curve" smooth="yes"/>
      <point x="468" y="-240"/>
      <point x="513" y="-180"/>
      <point x="513" y="-80" type="curve" smooth="yes"/>
      <point x="513" y="140" type="line" smooth="yes"/>
      <point x="513" y="277"/>
      <point x="461" y="336"/>
      <point x="329" y="336" type="curve" smooth="yes"/>
      <point x="324" y="336"/>
      <point x="319" y="336"/>
      <point x="314" y="335" type="curve"/>
      <point x="520" y="536" type="line"/>
      <point x="407" y="536" type="line"/>
      <point x="236" y="365" type="line" smooth="yes"/>
      <point x="206" y="335"/>
      <point x="184" y="303"/>
      <point x="172" y="287" type="curve"/>
      <point x="168" y="287" type="line"/>
      <point x="169" y="312"/>
      <point x="172" y="353"/>
      <point x="172" y="374" type="curve" smooth="yes"/>
      <point x="172" y="760" type="line"/>
      <point x="85" y="760" type="line"/>
      <point x="85" y="0" type="line"/>
      <point x="173" y="0" type="line"/>
      <point x="173" y="90" type="line" smooth="yes"/>
      <point x="173" y="194"/>
      <point x="212" y="262"/>
      <point x="318" y="262" type="curve" smooth="yes"/>
      <point x="398" y="262"/>
      <point x="425" y="220"/>
      <point x="425" y="134" type="curve" smooth="yes"/>
      <point x="425" y="-83" type="line" smooth="yes"/>
      <point x="425" y="-148"/>
      <point x="396" y="-167"/>
      <point x="358" y="-167" type="curve" smooth="yes"/>
      <point x="334" y="-167"/>
      <point x="316" y="-163"/>
      <point x="298" y="-157" type="curve"/>
      <point x="298" y="-228" type="line"/>
      <point x="315" y="-235"/>
      <point x="337" y="-240"/>
    </contour>
  </outline>
</glyph>
<glyph name="u104E6" format="2">
  <advance width="595"/>
  <unicode hex="104E6"/>
  <outline>
    <contour>
      <point x="517" y="-239" type="curve"/>
      <point x="581" y="-211" type="line"/>
      <point x="560" y="-159"/>
      <point x="538" y="-119"/>
      <point x="513" y="-88" type="curve"/>
      <point x="513" y="140" type="line" smooth="yes"/>
      <point x="513" y="277"/>
      <point x="461" y="336"/>
      <point x="329" y="336" type="curve" smooth="yes"/>
      <point x="324" y="336"/>
      <point x="319" y="336"/>
      <point x="314" y="335" type="curve"/>
      <point x="520" y="536" type="line"/>
      <point x="407" y="536" type="line"/>
      <point x="236" y="365" type="line" smooth="yes"/>
      <point x="206" y="335"/>
      <point x="184" y="303"/>
      <point x="172" y="287" type="curve"/>
      <point x="168" y="287" type="line"/>
      <point x="169" y="312"/>
      <point x="172" y="353"/>
      <point x="172" y="374" type="curve" smooth="yes"/>
      <point x="172" y="760" type="line"/>
      <point x="85" y="760" type="line"/>
      <point x="85" y="0" type="line"/>
      <point x="173" y="0" type="line"/>
      <point x="173" y="90" type="line" smooth="yes"/>
      <point x="173" y="194"/>
      <point x="212" y="262"/>
      <point x="318" y="262" type="curve" smooth="yes"/>
      <point x="398" y="262"/>
      <point x="425" y="220"/>
      <point x="425" y="134" type="curve" smooth="yes"/>
      <point x="425" y="-33" type="line"/>
      <point x="405" y="-25"/>
      <point x="377" y="-22"/>
      <point x="352" y="-22" type="curve" smooth="yes"/>
      <point x="258" y="-22"/>
      <point x="210" y="-69"/>
      <point x="210" y="-127" type="curve" smooth="yes"/>
      <point x="210" y="-195"/>
      <point x="266" y="-234"/>
      <point x="356" y="-234" type="curve" smooth="yes"/>
      <point x="418" y="-234"/>
      <point x="462" y="-205"/>
      <point x="485" y="-169" type="curve"/>
      <point x="494" y="-187"/>
      <point x="507" y="-215"/>
    </contour>
    <contour>
      <point x="357" y="-171" type="curve" smooth="yes"/>
      <point x="314" y="-171"/>
      <point x="288" y="-153"/>
      <point x="288" y="-128" type="curve" smooth="yes"/>
      <point x="288" y="-101"/>
      <point x="314" y="-84"/>
      <point x="359" y="-84" type="curve" smooth="yes"/>
      <point x="379" y="-84"/>
      <point x="406" y="-91"/>
      <point x="425" y="-106" type="curve"/>
      <point x="423" y="-135"/>
      <point x="402" y="-171"/>
    </contour>
  </outline>
</glyph>
<glyph name="u104E7" format="2">
  <advance width="542"/>
  <unicode hex="104E7"/>
  <outline>
    <contour>
      <point x="280" y="-10" type="curve" smooth="yes"/>
      <point x="395" y="-10"/>
      <point x="478" y="47"/>
      <point x="512" y="150" type="curve"/>
      <point x="424" y="150" type="line"/>
      <point x="401" y="94"/>
      <point x="351" y="63"/>
      <point x="282" y="63" type="curve" smooth="yes"/>
      <point x="175" y="63"/>
      <point x="146" y="137"/>
      <point x="146" y="215" type="curve" smooth="yes"/>
      <point x="146" y="322"/>
      <point x="223" y="459"/>
      <point x="302" y="535" type="curve"/>
      <point x="192" y="535" type="line"/>
      <point x="111" y="441"/>
      <point x="55" y="322"/>
      <point x="55" y="213" type="curve" smooth="yes"/>
      <point x="55" y="60"/>
      <point x="143" y="-10"/>
    </contour>
  </outline>
</glyph>
<glyph name="u104E8" format="2">
  <advance width="788"/>
  <unicode hex="104E8"/>
  <outline>
    <contour>
      <point x="85" y="0" type="line"/>
      <point x="174" y="0" type="line"/>
      <point x="174" y="259" type="line" smooth="yes"/>
      <point x="174" y="421"/>
      <point x="256" y="469"/>
      <point x="339" y="470" type="curve"/>
      <point x="289" y="426"/>
      <point x="258" y="363"/>
      <point x="258" y="282" type="curve" smooth="yes"/>
      <point x="258" y="126"/>
      <point x="346" y="71"/>
      <point x="433" y="71" type="curve" smooth="yes"/>
      <point x="521" y="71"/>
      <point x="609" y="126"/>
      <point x="609" y="282" type="curve" smooth="yes"/>
      <point x="609" y="362"/>
      <point x="584" y="425"/>
      <point x="543" y="469" type="curve"/>
      <point x="553" y="469"/>
      <point x="562" y="470"/>
      <point x="572" y="470" type="curve" smooth="yes"/>
      <point x="632" y="470"/>
      <point x="703" y="456"/>
      <point x="745" y="437" type="curve"/>
      <point x="768" y="511" type="line"/>
      <point x="717" y="537"/>
      <point x="640" y="547"/>
      <point x="571" y="547" type="curve" smooth="yes"/>
      <point x="528" y="547"/>
      <point x="486" y="541"/>
      <point x="449" y="529" type="curve"/>
      <point x="417" y="541"/>
      <point x="381" y="547"/>
      <point x="343" y="547" type="curve" smooth="yes"/>
      <point x="226" y="547"/>
      <point x="85" y="457"/>
      <point x="85" y="284" type="curve" smooth="yes"/>
    </contour>
    <contour>
      <point x="436" y="145" type="curve" smooth="yes"/>
      <point x="387" y="145"/>
      <point x="349" y="179"/>
      <point x="349" y="278" type="curve" smooth="yes"/>
      <point x="349" y="360"/>
      <point x="385" y="415"/>
      <point x="445" y="444" type="curve"/>
      <point x="489" y="417"/>
      <point x="517" y="364"/>
      <point x="517" y="278" type="curve" smooth="yes"/>
      <point x="517" y="182"/>
      <point x="481" y="145"/>
    </contour>
  </outline>
</glyph>
<glyph name="u104E9" format="2">
  <advance width="628"/>
  <unicode hex="104E9"/>
  <outline>
    <contour>
      <point x="379" y="-10" type="curve" smooth="yes"/>
      <point x="502" y="-10"/>
      <point x="589" y="56"/>
      <point x="618" y="174" type="curve"/>
      <point x="526" y="174" type="line"/>
      <point x="506" y="104"/>
      <point x="459" y="63"/>
      <point x="381" y="63" type="curve" smooth="yes"/>
      <point x="274" y="63"/>
      <point x="216" y="150"/>
      <point x="216" y="264" type="curve" smooth="yes"/>
      <point x="216" y="289"/>
      <point x="220" y="335"/>
      <point x="229" y="355" type="curve" smooth="yes"/>
      <point x="307" y="536" type="line"/>
      <point x="215" y="536" type="line"/>
      <point x="-15" y="0" type="line"/>
      <point x="77" y="0" type="line"/>
      <point x="144" y="157" type="line"/>
      <point x="178" y="49"/>
      <point x="270" y="-10"/>
    </contour>
  </outline>
</glyph>
<glyph name="u104EC" format="2">
  <advance width="497"/>
  <unicode hex="104EC"/>
  <outline>
    <contour>
      <point x="85" y="-120" type="line"/>
      <point x="173" y="-120" type="line"/>
      <point x="173" y="28" type="line" smooth="yes"/>
      <point x="173" y="45"/>
      <point x="172" y="68"/>
      <point x="171" y="84" type="curve"/>
      <point x="175" y="84" type="line"/>
      <point x="197" y="56"/>
      <point x="231" y="35"/>
      <point x="289" y="35" type="curve" smooth="yes"/>
      <point x="381" y="35"/>
      <point x="442" y="100"/>
      <point x="442" y="224" type="curve" smooth="yes"/>
      <point x="442" y="349"/>
      <point x="381" y="412"/>
      <point x="289" y="412" type="curve" smooth="yes"/>
      <point x="229" y="412"/>
      <point x="189" y="385"/>
      <point x="174" y="359" type="curve"/>
      <point x="171" y="359" type="line"/>
      <point x="172" y="382"/>
      <point x="173" y="401"/>
      <point x="173" y="424" type="curve" smooth="yes"/>
      <point x="173" y="536" type="line"/>
      <point x="85" y="536" type="line"/>
    </contour>
    <contour>
      <point x="269" y="110" type="curve" smooth="yes"/>
      <point x="205" y="110"/>
      <point x="173" y="156"/>
      <point x="173" y="208" type="curve" smooth="yes"/>
      <point x="173" y="238" type="line"/>
      <point x="173" y="288"/>
      <point x="209" y="339"/>
      <point x="271" y="339" type="curve" smooth="yes"/>
      <point x="326" y="339"/>
      <point x="351" y="290"/>
      <point x="351" y="224" type="curve" smooth="yes"/>
      <point x="351" y="159"/>
      <point x="324" y="110"/>
    </contour>
  </outline>
</glyph>
<glyph name="u104EE" format="2">
  <advance width="427"/>
  <unicode hex="104EE"/>
  <outline>
    <contour>
      <point x="344" y="-11" type="curve"/>
      <point x="394" y="55" type="line"/>
      <point x="314" y="112"/>
      <point x="146" y="205"/>
      <point x="146" y="355" type="curve" smooth="yes"/>
      <point x="146" y="412"/>
      <point x="175" y="469"/>
      <point x="254" y="469" type="curve" smooth="yes"/>
      <point x="291" y="469"/>
      <point x="338" y="456"/>
      <point x="370" y="444" type="curve"/>
      <point x="397" y="517" type="line"/>
      <point x="365" y="533"/>
      <point x="310" y="546"/>
      <point x="256" y="546" type="curve" smooth="yes"/>
      <point x="125" y="546"/>
      <point x="55" y="460"/>
      <point x="55" y="362" type="curve" smooth="yes"/>
      <point x="55" y="137"/>
      <point x="296" y="27"/>
    </contour>
  </outline>
</glyph>
<glyph name="u104EF" format="2">
  <advance width="647"/>
  <unicode hex="104EF"/>
  <outline>
    <contour>
      <point x="543" y="-174" type="curve"/>
      <point x="617" y="-131" type="line"/>
      <point x="592" y="-108"/>
      <point x="586" y="-76"/>
      <point x="586" y="-38" type="curve" smooth="yes"/>
      <point x="586" y="30"/>
      <point x="609" y="92"/>
      <point x="609" y="157" type="curve" smooth="yes"/>
      <point x="609" y="172" type="line" smooth="yes"/>
      <point x="609" y="284"/>
      <point x="534" y="370"/>
      <point x="341" y="370" type="curve" smooth="yes"/>
      <point x="289" y="370"/>
      <point x="240" y="359"/>
      <point x="196" y="340" type="curve"/>
      <point x="156" y="360"/>
      <point x="144" y="378"/>
      <point x="144" y="409" type="curve" smooth="yes"/>
      <point x="144" y="449"/>
      <point x="183" y="474"/>
      <point x="255" y="474" type="curve" smooth="yes"/>
      <point x="307" y="474"/>
      <point x="357" y="459"/>
      <point x="402" y="440" type="curve"/>
      <point x="432" y="510" type="line"/>
      <point x="382" y="532"/>
      <point x="326" y="546"/>
      <point x="261" y="546" type="curve" smooth="yes"/>
      <point x="141" y="546"/>
      <point x="60" y="495"/>
      <point x="60" y="404" type="curve" smooth="yes"/>
      <point x="60" y="352"/>
      <point x="81" y="320"/>
      <point x="119" y="294" type="curve"/>
      <point x="68" y="256"/>
      <point x="40" y="206"/>
      <point x="40" y="148" type="curve" smooth="yes"/>
      <point x="40" y="38"/>
      <point x="130" y="-10"/>
      <point x="239" y="-10" type="curve" smooth="yes"/>
      <point x="369" y="-10"/>
      <point x="443" y="51"/>
      <point x="443" y="148" type="curve" smooth="yes"/>
      <point x="443" y="225"/>
      <point x="388" y="262"/>
      <point x="303" y="297" type="curve"/>
      <point x="315" y="298"/>
      <point x="328" y="299"/>
      <point x="342" y="299" type="curve" smooth="yes"/>
      <point x="478" y="299"/>
      <point x="521" y="246"/>
      <point x="521" y="172" type="curve" smooth="yes"/>
      <point x="521" y="146" type="line" smooth="yes"/>
      <point x="520" y="70"/>
      <point x="494" y="21"/>
      <point x="494" y="-48" type="curve" smooth="yes"/>
      <point x="494" y="-105"/>
      <point x="508" y="-149"/>
    </contour>
    <contour>
      <point x="239" y="62" type="curve" smooth="yes"/>
      <point x="159" y="62"/>
      <point x="125" y="92"/>
      <point x="125" y="149" type="curve" smooth="yes"/>
      <point x="125" y="203"/>
      <point x="153" y="235"/>
      <point x="188" y="259" type="curve"/>
      <point x="226" y="244" type="line" smooth="yes"/>
      <point x="331" y="204"/>
      <point x="358" y="180"/>
      <point x="358" y="140" type="curve" smooth="yes"/>
      <point x="358" y="93"/>
      <point x="322" y="62"/>
    </contour>
  </outline>
</glyph>
<glyph name="u104F0" format="2">
  <advance width="599"/>
  <unicode hex="104F0"/>
  <outline>
    <contour>
      <point x="100" y="0" type="line"/>
      <point x="253" y="0" type="line" smooth="yes"/>
      <point x="437" y="0"/>
      <point x="544" y="92"/>
      <point x="544" y="273" type="curve" smooth="yes"/>
      <point x="544" y="445"/>
      <point x="447" y="536"/>
      <point x="280" y="536" type="curve" smooth="yes"/>
      <point x="15" y="536" type="line"/>
      <point x="15" y="465" type="line"/>
      <point x="178" y="465" type="line"/>
    </contour>
    <contour>
      <point x="202" y="71" type="line"/>
      <point x="268" y="465" type="line"/>
      <point x="281" y="465" type="line"/>
      <point x="382" y="465"/>
      <point x="452" y="404"/>
      <point x="452" y="271" type="curve" smooth="yes"/>
      <point x="452" y="139"/>
      <point x="384" y="71"/>
      <point x="245" y="71" type="curve" smooth="yes"/>
    </contour>
  </outline>
</glyph>
<glyph name="u104F2" format="2">
  <advance width="530"/>
  <unicode hex="104F2"/>
  <outline>
    <contour>
      <point x="234" y="-131" type="curve" smooth="yes"/>
      <point x="309" y="-131"/>
      <point x="366" y="-113"/>
      <point x="402" y="-101" type="curve"/>
      <point x="402" y="-23" type="line"/>
      <point x="360" y="-44"/>
      <point x="295" y="-60"/>
      <point x="232" y="-60" type="curve" smooth="yes"/>
      <point x="143" y="-60"/>
      <point x="105" y="-35"/>
      <point x="105" y="22" type="curve" smooth="yes"/>
      <point x="105" y="79"/>
      <point x="172" y="112"/>
      <point x="247" y="135" type="curve" smooth="yes"/>
      <point x="359" y="169"/>
      <point x="480" y="203"/>
      <point x="480" y="359" type="curve" smooth="yes"/>
      <point x="480" y="470"/>
      <point x="396" y="536"/>
      <point x="244" y="536" type="curve" smooth="yes"/>
      <point x="112" y="536" type="line"/>
      <point x="112" y="468" type="line"/>
      <point x="203" y="468" type="line"/>
      <point x="161" y="182" type="line"/>
      <point x="84" y="151"/>
      <point x="20" y="104"/>
      <point x="20" y="22" type="curve" smooth="yes"/>
      <point x="20" y="-94"/>
      <point x="103" y="-131"/>
    </contour>
    <contour>
      <point x="249" y="212" type="curve"/>
      <point x="286" y="464" type="line"/>
      <point x="360" y="452"/>
      <point x="395" y="415"/>
      <point x="395" y="351" type="curve" smooth="yes"/>
      <point x="395" y="264"/>
      <point x="327" y="235"/>
    </contour>
  </outline>
</glyph>
<glyph name="u104F5" format="2">
  <advance width="624"/>
  <unicode hex="104F5"/>
  <outline>
    <contour>
      <point x="520" y="-174" type="curve"/>
      <point x="594" y="-131" type="line"/>
      <point x="569" y="-108"/>
      <point x="563" y="-76"/>
      <point x="563" y="-38" type="curve" smooth="yes"/>
      <point x="563" y="30"/>
      <point x="586" y="92"/>
      <point x="586" y="157" type="curve" smooth="yes"/>
      <point x="586" y="170" type="line" smooth="yes"/>
      <point x="586" y="307"/>
      <point x="513" y="366"/>
      <point x="396" y="366" type="curve" smooth="yes"/>
      <point x="332" y="366"/>
      <point x="291" y="339"/>
      <point x="279" y="322" type="curve"/>
      <point x="277" y="322" type="line"/>
      <point x="277" y="464" type="line"/>
      <point x="443" y="464" type="line"/>
      <point x="443" y="536" type="line"/>
      <point x="21" y="536" type="line"/>
      <point x="21" y="464" type="line"/>
      <point x="188" y="464" type="line"/>
      <point x="188" y="0" type="line"/>
      <point x="277" y="0" type="line"/>
      <point x="277" y="146" type="line" smooth="yes"/>
      <point x="277" y="263"/>
      <point x="322" y="292"/>
      <point x="386" y="292" type="curve" smooth="yes"/>
      <point x="460" y="292"/>
      <point x="498" y="250"/>
      <point x="498" y="164" type="curve" smooth="yes"/>
      <point x="498" y="146" type="line" smooth="yes"/>
      <point x="498" y="70"/>
      <point x="471" y="21"/>
      <point x="471" y="-48" type="curve" smooth="yes"/>
      <point x="471" y="-105"/>
      <point x="485" y="-149"/>
    </contour>
  </outline>
</glyph>
<glyph name="u104F6" format="2">
  <advance width="618"/>
  <unicode hex="104F6"/>
  <outline>
    <contour>
      <point x="306" y="-10" type="curve" smooth="yes"/>
      <point x="464" y="-10"/>
      <point x="533" y="61"/>
      <point x="533" y="216" type="curve" smooth="yes"/>
      <point x="533" y="536" type="line"/>
      <point x="444" y="536" type="line"/>
      <point x="444" y="201" type="line" smooth="yes"/>
      <point x="444" y="105"/>
      <point x="402" y="63"/>
      <point x="303" y="63" type="curve" smooth="yes"/>
      <point x="208" y="63"/>
      <point x="168" y="107"/>
      <point x="168" y="201" type="curve" smooth="yes"/>
      <point x="168" y="536" type="line"/>
      <point x="79" y="536" type="line"/>
      <point x="79" y="216" type="line" smooth="yes"/>
      <point x="79" y="61"/>
      <point x="142" y="-10"/>
    </contour>
  </outline>
</glyph>
<glyph name="u104F7" format="2">
  <advance width="447"/>
  <unicode hex="104F7"/>
  <outline>
    <contour>
      <point x="171" y="0" type="line"/>
      <point x="263" y="0" type="line"/>
      <point x="387" y="330" type="line"/>
      <point x="178" y="330" type="line"/>
      <point x="256" y="536" type="line"/>
      <point x="164" y="536" type="line"/>
      <point x="60" y="260" type="line"/>
      <point x="268" y="260" type="line"/>
    </contour>
  </outline>
</glyph>
<glyph name="u104F8" format="2">
  <advance width="690"/>
  <unicode hex="104F8"/>
  <outline>
    <contour>
      <point x="302" y="0" type="line"/>
      <point x="388" y="0" type="line"/>
      <point x="388" y="396" type="line"/>
      <point x="473" y="389"/>
      <point x="538" y="324"/>
      <point x="538" y="183" type="curve" smooth="yes"/>
      <point x="538" y="50" type="line"/>
      <point x="625" y="50" type="line"/>
      <point x="625" y="180" type="line" smooth="yes"/>
      <point x="625" y="370"/>
      <point x="539" y="462"/>
      <point x="388" y="469" type="curve"/>
      <point x="388" y="640" type="line"/>
      <point x="302" y="640" type="line"/>
      <point x="302" y="469" type="line"/>
      <point x="151" y="462"/>
      <point x="65" y="370"/>
      <point x="65" y="180" type="curve" smooth="yes"/>
      <point x="65" y="50" type="line"/>
      <point x="152" y="50" type="line"/>
      <point x="152" y="183" type="line" smooth="yes"/>
      <point x="152" y="324"/>
      <point x="217" y="388"/>
      <point x="302" y="396" type="curve"/>
    </contour>
  </outline>
</glyph>
<glyph name="u104F9" format="2">
  <advance width="690"/>
  <unicode hex="104F9"/>
  <outline>
    <contour>
      <point x="302" y="0" type="line"/>
      <point x="388" y="0" type="line"/>
      <point x="388" y="101" type="line"/>
      <point x="539" y="109"/>
      <point x="625" y="199"/>
      <point x="625" y="390" type="curve" smooth="yes"/>
      <point x="625" y="470" type="line"/>
      <point x="538" y="470" type="line"/>
      <point x="538" y="387" type="line" smooth="yes"/>
      <point x="538" y="245"/>
      <point x="473" y="181"/>
      <point x="388" y="174" type="curve"/>
      <point x="388" y="640" type="line"/>
      <point x="302" y="640" type="line"/>
      <point x="302" y="175" type="line"/>
      <point x="217" y="182"/>
      <point x="152" y="246"/>
      <point x="152" y="387" type="curve" smooth="yes"/>
      <point x="152" y="470" type="line"/>
      <point x="65" y="470" type="line"/>
      <point x="65" y="390" type="line" smooth="yes"/>
      <point x="65" y="199"/>
      <point x="151" y="109"/>
      <point x="302" y="101" type="curve"/>
    </contour>
  </outline>
</glyph>
<glyph name="u104FA" format="2">
  <advance width="444"/>
  <unicode hex="104FA"/>
  <outline>
    <contour>
      <point x="-4" y="0" type="line"/>
      <point x="91" y="0" type="line"/>
      <point x="424" y="470" type="line"/>
      <point x="424" y="536" type="line"/>
      <point x="56" y="536" type="line"/>
      <point x="56" y="468" type="line"/>
      <point x="327" y="468" type="line"/>
    </contour>
  </outline>
</glyph>
<glyph name="u104FB" format="2">
  <advance width="502"/>
  <unicode hex="104FB"/>
  <outline>
    <contour>
      <point x="393" y="-174" type="curve"/>
      <point x="472" y="-131" type="line"/>
      <point x="465" y="-117"/>
      <point x="461" y="-81"/>
      <point x="461" y="-68" type="curve" smooth="yes"/>
      <point x="461" y="6" type="line" smooth="yes"/>
      <point x="461" y="120"/>
      <point x="370" y="168"/>
      <point x="276" y="168" type="curve" smooth="yes"/>
      <point x="245" y="168"/>
      <point x="220" y="164"/>
      <point x="196" y="157" type="curve"/>
      <point x="415" y="492" type="line"/>
      <point x="415" y="536" type="line"/>
      <point x="47" y="536" type="line"/>
      <point x="47" y="468" type="line"/>
      <point x="318" y="468" type="line"/>
      <point x="26" y="21" type="line"/>
      <point x="26" y="0" type="line"/>
      <point x="99" y="0" type="line"/>
      <point x="110" y="28" type="line"/>
      <point x="156" y="90"/>
      <point x="200" y="97"/>
      <point x="264" y="97" type="curve" smooth="yes"/>
      <point x="324" y="97"/>
      <point x="373" y="67"/>
      <point x="373" y="7" type="curve" smooth="yes"/>
      <point x="373" y="-75" type="line" smooth="yes"/>
      <point x="373" y="-124"/>
      <point x="382" y="-154"/>
    </contour>
  </outline>
</glyph>
<glyph name="horizbar1" format="2">
  <outline>
    <contour>
      <point x="0" y="0" type="line"/>
      <point x="267" y="0" type="line"/>
      <point x="267" y="76" type="line"/>
      <point x="0" y="76" type="line"/>
    </contour>
  </outline>
</glyph>
<glyph name="horizbar2" format="2">
  <outline>
    <contour>
      <point x="0" y="0" type="line"/>
      <point x="227" y="0" type="line"/>
      <point x="227" y="68" type="line"/>
      <point x="0" y="68" type="line"/>
    </contour>
  </outline>
</glyph>
<glyph name="vertbar" format="2">
  <outline>
    <contour>
      <point x="0" y="0" type="line"/>
      <point x="76" y="0" type="line"/>
      <point x="76" y="184" type="line"/>
      <point x="0" y="184" type="line"/>
    </contour>
  </outline>
</glyph>
